{
	"asset":{
		"generator":"Khronos glTF Blender I/O v5.1.18",
		"version":"2.0"
	},
	"scene":0,
	"scenes":[
		{
			"name":"Scene",
			"nodes":[
				0,
				1
			]
		}
	],
	"nodes":[
		{
			"mesh":0,
			"name":"b__01__001",
			"rotation":[
				0.14873000979423523,
				0.6600455045700073,
				-0.714520275592804,
				0.17798897624015808
			],
			"scale":[
				1.8044377565383911,
				1.804437518119812,
				1.8044377565383911
			],
			"translation":[
				11.02061653137207,
				20.50139045715332,
				26.115739822387695
			]
		},
		{
			"mesh":1,
			"name":"BezierCurve_003",
			"translation":[
				9.740513801574707,
				-1.7268040180206299,
				29.220537185668945
			]
		}
	],
	"materials":[
		{
			"alphaMode":"BLEND",
			"doubleSided":true,
			"name":"b__01_",
			"pbrMetallicRoughness":{
				"baseColorTexture":{
					"index":0
				},
				"metallicFactor":0,
				"roughnessFactor":0.5
			}
		},
		{
			"alphaMode":"BLEND",
			"doubleSided":true,
			"name":"b__02_",
			"pbrMetallicRoughness":{
				"baseColorTexture":{
					"index":1
				},
				"metallicFactor":0,
				"roughnessFactor":0.5
			}
		},
		{
			"alphaMode":"BLEND",
			"doubleSided":true,
			"name":"b__03_",
			"pbrMetallicRoughness":{
				"baseColorTexture":{
					"index":2
				},
				"metallicFactor":0,
				"roughnessFactor":0.5
			}
		},
		{
			"alphaMode":"BLEND",
			"doubleSided":true,
			"name":"b__04_",
			"pbrMetallicRoughness":{
				"baseColorTexture":{
					"index":3
				},
				"metallicFactor":0,
				"roughnessFactor":0.5
			}
		},
		{
			"alphaMode":"BLEND",
			"doubleSided":true,
			"name":"b__05_",
			"pbrMetallicRoughness":{
				"baseColorTexture":{
					"index":4
				},
				"metallicFactor":0,
				"roughnessFactor":0.5
			}
		},
		{
			"alphaMode":"BLEND",
			"doubleSided":true,
			"name":"b__06_",
			"pbrMetallicRoughness":{
				"baseColorTexture":{
					"index":5
				},
				"metallicFactor":0,
				"roughnessFactor":0.5
			}
		},
		{
			"alphaMode":"BLEND",
			"doubleSided":true,
			"name":"b__07_",
			"pbrMetallicRoughness":{
				"baseColorTexture":{
					"index":6
				},
				"metallicFactor":0,
				"roughnessFactor":0.5
			}
		},
		{
			"alphaMode":"BLEND",
			"doubleSided":true,
			"name":"b__08_",
			"pbrMetallicRoughness":{
				"baseColorTexture":{
					"index":7
				},
				"metallicFactor":0,
				"roughnessFactor":0.5
			}
		},
		{
			"alphaMode":"BLEND",
			"doubleSided":true,
			"name":"b__09_",
			"pbrMetallicRoughness":{
				"baseColorTexture":{
					"index":8
				},
				"metallicFactor":0,
				"roughnessFactor":0.5
			}
		},
		{
			"alphaMode":"BLEND",
			"doubleSided":true,
			"name":"b__10_",
			"pbrMetallicRoughness":{
				"baseColorTexture":{
					"index":9
				},
				"metallicFactor":0,
				"roughnessFactor":0.5
			}
		},
		{
			"alphaMode":"BLEND",
			"doubleSided":true,
			"name":"b__11_",
			"pbrMetallicRoughness":{
				"baseColorTexture":{
					"index":10
				},
				"metallicFactor":0,
				"roughnessFactor":0.5
			}
		},
		{
			"alphaMode":"BLEND",
			"doubleSided":true,
			"name":"b__12_",
			"pbrMetallicRoughness":{
				"baseColorTexture":{
					"index":11
				},
				"metallicFactor":0,
				"roughnessFactor":0.5
			}
		},
		{
			"alphaMode":"BLEND",
			"doubleSided":true,
			"name":"b__13_",
			"pbrMetallicRoughness":{
				"baseColorTexture":{
					"index":12
				},
				"metallicFactor":0,
				"roughnessFactor":0.5
			}
		},
		{
			"alphaMode":"BLEND",
			"doubleSided":true,
			"name":"b__14_",
			"pbrMetallicRoughness":{
				"baseColorTexture":{
					"index":13
				},
				"metallicFactor":0,
				"roughnessFactor":0.5
			}
		},
		{
			"alphaMode":"BLEND",
			"doubleSided":true,
			"name":"b__15_",
			"pbrMetallicRoughness":{
				"baseColorTexture":{
					"index":14
				},
				"metallicFactor":0,
				"roughnessFactor":0.5
			}
		},
		{
			"alphaMode":"BLEND",
			"doubleSided":true,
			"name":"b__16_",
			"pbrMetallicRoughness":{
				"baseColorTexture":{
					"index":15
				},
				"metallicFactor":0,
				"roughnessFactor":0.5
			}
		},
		{
			"alphaMode":"BLEND",
			"doubleSided":true,
			"name":"b__17_",
			"pbrMetallicRoughness":{
				"baseColorTexture":{
					"index":16
				},
				"metallicFactor":0,
				"roughnessFactor":0.5
			}
		},
		{
			"alphaMode":"BLEND",
			"doubleSided":true,
			"name":"b__18_",
			"pbrMetallicRoughness":{
				"baseColorTexture":{
					"index":17
				},
				"metallicFactor":0,
				"roughnessFactor":0.5
			}
		},
		{
			"alphaMode":"BLEND",
			"doubleSided":true,
			"name":"b__19_",
			"pbrMetallicRoughness":{
				"baseColorTexture":{
					"index":18
				},
				"metallicFactor":0,
				"roughnessFactor":0.5
			}
		},
		{
			"alphaMode":"BLEND",
			"doubleSided":true,
			"name":"b__20_",
			"pbrMetallicRoughness":{
				"baseColorTexture":{
					"index":19
				},
				"metallicFactor":0,
				"roughnessFactor":0.5
			}
		},
		{
			"alphaMode":"BLEND",
			"doubleSided":true,
			"name":"b__21_",
			"pbrMetallicRoughness":{
				"baseColorTexture":{
					"index":20
				},
				"metallicFactor":0,
				"roughnessFactor":0.5
			}
		},
		{
			"alphaMode":"BLEND",
			"doubleSided":true,
			"name":"b__22_",
			"pbrMetallicRoughness":{
				"baseColorTexture":{
					"index":21
				},
				"metallicFactor":0,
				"roughnessFactor":0.5
			}
		},
		{
			"alphaMode":"BLEND",
			"doubleSided":true,
			"name":"b__23_",
			"pbrMetallicRoughness":{
				"baseColorTexture":{
					"index":22
				},
				"metallicFactor":0,
				"roughnessFactor":0.5
			}
		},
		{
			"alphaMode":"BLEND",
			"doubleSided":true,
			"name":"b__24_",
			"pbrMetallicRoughness":{
				"baseColorTexture":{
					"index":23
				},
				"metallicFactor":0,
				"roughnessFactor":0.5
			}
		},
		{
			"alphaMode":"BLEND",
			"doubleSided":true,
			"name":"b__25_",
			"pbrMetallicRoughness":{
				"baseColorTexture":{
					"index":24
				},
				"metallicFactor":0,
				"roughnessFactor":0.5
			}
		},
		{
			"alphaMode":"BLEND",
			"doubleSided":true,
			"name":"b__26_",
			"pbrMetallicRoughness":{
				"baseColorTexture":{
					"index":25
				},
				"metallicFactor":0,
				"roughnessFactor":0.5
			}
		},
		{
			"alphaMode":"BLEND",
			"doubleSided":true,
			"name":"b__27_",
			"pbrMetallicRoughness":{
				"baseColorTexture":{
					"index":26
				},
				"metallicFactor":0,
				"roughnessFactor":0.5
			}
		},
		{
			"alphaMode":"BLEND",
			"doubleSided":true,
			"name":"b__28_",
			"pbrMetallicRoughness":{
				"baseColorTexture":{
					"index":27
				},
				"metallicFactor":0,
				"roughnessFactor":0.5
			}
		},
		{
			"alphaMode":"BLEND",
			"doubleSided":true,
			"name":"b__29_",
			"pbrMetallicRoughness":{
				"baseColorTexture":{
					"index":28
				},
				"metallicFactor":0,
				"roughnessFactor":0.5
			}
		},
		{
			"alphaMode":"BLEND",
			"doubleSided":true,
			"name":"b__30_",
			"pbrMetallicRoughness":{
				"baseColorTexture":{
					"index":29
				},
				"metallicFactor":0,
				"roughnessFactor":0.5
			}
		},
		{
			"alphaMode":"BLEND",
			"doubleSided":true,
			"name":"b__31_",
			"pbrMetallicRoughness":{
				"baseColorTexture":{
					"index":30
				},
				"metallicFactor":0,
				"roughnessFactor":0.5
			}
		},
		{
			"alphaMode":"BLEND",
			"doubleSided":true,
			"name":"b__32_",
			"pbrMetallicRoughness":{
				"baseColorTexture":{
					"index":31
				},
				"metallicFactor":0,
				"roughnessFactor":0.5
			}
		},
		{
			"alphaMode":"BLEND",
			"doubleSided":true,
			"name":"b__33_",
			"pbrMetallicRoughness":{
				"baseColorTexture":{
					"index":32
				},
				"metallicFactor":0,
				"roughnessFactor":0.5
			}
		},
		{
			"alphaMode":"BLEND",
			"doubleSided":true,
			"name":"b__34_",
			"pbrMetallicRoughness":{
				"baseColorTexture":{
					"index":33
				},
				"metallicFactor":0,
				"roughnessFactor":0.5
			}
		},
		{
			"alphaMode":"BLEND",
			"doubleSided":true,
			"name":"b__35_",
			"pbrMetallicRoughness":{
				"baseColorTexture":{
					"index":34
				},
				"metallicFactor":0,
				"roughnessFactor":0.5
			}
		},
		{
			"alphaMode":"BLEND",
			"doubleSided":true,
			"name":"b__36_",
			"pbrMetallicRoughness":{
				"baseColorTexture":{
					"index":35
				},
				"metallicFactor":0,
				"roughnessFactor":0.5
			}
		},
		{
			"doubleSided":true,
			"name":"Bark",
			"pbrMetallicRoughness":{
				"baseColorFactor":[
					0.21980808675289154,
					0.16795562207698822,
					0.12140253186225891,
					1
				],
				"metallicFactor":0
			}
		}
	],
	"meshes":[
		{
			"name":"b__01__001",
			"primitives":[
				{
					"attributes":{
						"POSITION":0,
						"NORMAL":1,
						"TEXCOORD_0":2
					},
					"indices":3,
					"material":0
				},
				{
					"attributes":{
						"POSITION":4,
						"NORMAL":5,
						"TEXCOORD_0":6
					},
					"indices":3,
					"material":1
				},
				{
					"attributes":{
						"POSITION":7,
						"NORMAL":8,
						"TEXCOORD_0":9
					},
					"indices":3,
					"material":2
				},
				{
					"attributes":{
						"POSITION":10,
						"NORMAL":11,
						"TEXCOORD_0":12
					},
					"indices":3,
					"material":3
				},
				{
					"attributes":{
						"POSITION":13,
						"NORMAL":14,
						"TEXCOORD_0":15
					},
					"indices":3,
					"material":4
				},
				{
					"attributes":{
						"POSITION":16,
						"NORMAL":17,
						"TEXCOORD_0":18
					},
					"indices":3,
					"material":5
				},
				{
					"attributes":{
						"POSITION":19,
						"NORMAL":20,
						"TEXCOORD_0":21
					},
					"indices":3,
					"material":6
				},
				{
					"attributes":{
						"POSITION":22,
						"NORMAL":23,
						"TEXCOORD_0":24
					},
					"indices":3,
					"material":7
				},
				{
					"attributes":{
						"POSITION":25,
						"NORMAL":26,
						"TEXCOORD_0":27
					},
					"indices":3,
					"material":8
				},
				{
					"attributes":{
						"POSITION":28,
						"NORMAL":29,
						"TEXCOORD_0":30
					},
					"indices":3,
					"material":9
				},
				{
					"attributes":{
						"POSITION":31,
						"NORMAL":32,
						"TEXCOORD_0":33
					},
					"indices":3,
					"material":10
				},
				{
					"attributes":{
						"POSITION":34,
						"NORMAL":35,
						"TEXCOORD_0":36
					},
					"indices":3,
					"material":11
				},
				{
					"attributes":{
						"POSITION":37,
						"NORMAL":38,
						"TEXCOORD_0":39
					},
					"indices":3,
					"material":12
				},
				{
					"attributes":{
						"POSITION":40,
						"NORMAL":41,
						"TEXCOORD_0":42
					},
					"indices":3,
					"material":13
				},
				{
					"attributes":{
						"POSITION":43,
						"NORMAL":44,
						"TEXCOORD_0":45
					},
					"indices":3,
					"material":14
				},
				{
					"attributes":{
						"POSITION":46,
						"NORMAL":47,
						"TEXCOORD_0":48
					},
					"indices":3,
					"material":15
				},
				{
					"attributes":{
						"POSITION":49,
						"NORMAL":50,
						"TEXCOORD_0":51
					},
					"indices":3,
					"material":16
				},
				{
					"attributes":{
						"POSITION":52,
						"NORMAL":53,
						"TEXCOORD_0":54
					},
					"indices":3,
					"material":17
				},
				{
					"attributes":{
						"POSITION":55,
						"NORMAL":56,
						"TEXCOORD_0":57
					},
					"indices":3,
					"material":18
				},
				{
					"attributes":{
						"POSITION":58,
						"NORMAL":59,
						"TEXCOORD_0":60
					},
					"indices":3,
					"material":19
				},
				{
					"attributes":{
						"POSITION":61,
						"NORMAL":62,
						"TEXCOORD_0":63
					},
					"indices":3,
					"material":20
				},
				{
					"attributes":{
						"POSITION":64,
						"NORMAL":65,
						"TEXCOORD_0":66
					},
					"indices":3,
					"material":21
				},
				{
					"attributes":{
						"POSITION":67,
						"NORMAL":68,
						"TEXCOORD_0":69
					},
					"indices":3,
					"material":22
				},
				{
					"attributes":{
						"POSITION":70,
						"NORMAL":71,
						"TEXCOORD_0":72
					},
					"indices":3,
					"material":23
				},
				{
					"attributes":{
						"POSITION":73,
						"NORMAL":74,
						"TEXCOORD_0":75
					},
					"indices":3,
					"material":24
				},
				{
					"attributes":{
						"POSITION":76,
						"NORMAL":77,
						"TEXCOORD_0":78
					},
					"indices":3,
					"material":25
				},
				{
					"attributes":{
						"POSITION":79,
						"NORMAL":80,
						"TEXCOORD_0":81
					},
					"indices":3,
					"material":26
				},
				{
					"attributes":{
						"POSITION":82,
						"NORMAL":83,
						"TEXCOORD_0":84
					},
					"indices":3,
					"material":27
				},
				{
					"attributes":{
						"POSITION":85,
						"NORMAL":86,
						"TEXCOORD_0":87
					},
					"indices":3,
					"material":28
				},
				{
					"attributes":{
						"POSITION":88,
						"NORMAL":89,
						"TEXCOORD_0":90
					},
					"indices":3,
					"material":29
				},
				{
					"attributes":{
						"POSITION":91,
						"NORMAL":92,
						"TEXCOORD_0":93
					},
					"indices":3,
					"material":30
				},
				{
					"attributes":{
						"POSITION":94,
						"NORMAL":95,
						"TEXCOORD_0":96
					},
					"indices":3,
					"material":31
				},
				{
					"attributes":{
						"POSITION":97,
						"NORMAL":98,
						"TEXCOORD_0":99
					},
					"indices":3,
					"material":32
				},
				{
					"attributes":{
						"POSITION":100,
						"NORMAL":101,
						"TEXCOORD_0":102
					},
					"indices":3,
					"material":33
				},
				{
					"attributes":{
						"POSITION":103,
						"NORMAL":104,
						"TEXCOORD_0":105
					},
					"indices":3,
					"material":34
				},
				{
					"attributes":{
						"POSITION":106,
						"NORMAL":107,
						"TEXCOORD_0":108
					},
					"indices":3,
					"material":35
				}
			]
		},
		{
			"name":"BezierCurve_003",
			"primitives":[
				{
					"attributes":{
						"POSITION":109,
						"NORMAL":110
					},
					"indices":111,
					"material":36
				}
			]
		}
	],
	"textures":[
		{
			"sampler":0,
			"source":0
		},
		{
			"sampler":0,
			"source":1
		},
		{
			"sampler":0,
			"source":2
		},
		{
			"sampler":0,
			"source":3
		},
		{
			"sampler":0,
			"source":4
		},
		{
			"sampler":0,
			"source":5
		},
		{
			"sampler":0,
			"source":6
		},
		{
			"sampler":0,
			"source":7
		},
		{
			"sampler":0,
			"source":8
		},
		{
			"sampler":0,
			"source":9
		},
		{
			"sampler":0,
			"source":10
		},
		{
			"sampler":0,
			"source":11
		},
		{
			"sampler":0,
			"source":12
		},
		{
			"sampler":0,
			"source":13
		},
		{
			"sampler":0,
			"source":14
		},
		{
			"sampler":0,
			"source":15
		},
		{
			"sampler":0,
			"source":16
		},
		{
			"sampler":0,
			"source":17
		},
		{
			"sampler":0,
			"source":18
		},
		{
			"sampler":0,
			"source":19
		},
		{
			"sampler":0,
			"source":20
		},
		{
			"sampler":0,
			"source":21
		},
		{
			"sampler":0,
			"source":22
		},
		{
			"sampler":0,
			"source":23
		},
		{
			"sampler":0,
			"source":24
		},
		{
			"sampler":0,
			"source":25
		},
		{
			"sampler":0,
			"source":26
		},
		{
			"sampler":0,
			"source":27
		},
		{
			"sampler":0,
			"source":28
		},
		{
			"sampler":0,
			"source":29
		},
		{
			"sampler":0,
			"source":30
		},
		{
			"sampler":0,
			"source":31
		},
		{
			"sampler":0,
			"source":32
		},
		{
			"sampler":0,
			"source":33
		},
		{
			"sampler":0,
			"source":34
		},
		{
			"sampler":0,
			"source":35
		}
	],
	"images":[
		{
			"mimeType":"image/png",
			"name":"b (01)",
			"uri":"textures/b%20%2801%29.png"
		},
		{
			"mimeType":"image/png",
			"name":"b (02)",
			"uri":"textures/b%20%2802%29.png"
		},
		{
			"mimeType":"image/png",
			"name":"b (03)",
			"uri":"textures/b%20%2803%29.png"
		},
		{
			"mimeType":"image/png",
			"name":"b (04)",
			"uri":"textures/b%20%2804%29.png"
		},
		{
			"mimeType":"image/png",
			"name":"b (05)",
			"uri":"textures/b%20%2805%29.png"
		},
		{
			"mimeType":"image/png",
			"name":"b (06)",
			"uri":"textures/b%20%2806%29.png"
		},
		{
			"mimeType":"image/png",
			"name":"b (07)",
			"uri":"textures/b%20%2807%29.png"
		},
		{
			"mimeType":"image/png",
			"name":"b (08)",
			"uri":"textures/b%20%2808%29.png"
		},
		{
			"mimeType":"image/png",
			"name":"b (09)",
			"uri":"textures/b%20%2809%29.png"
		},
		{
			"mimeType":"image/png",
			"name":"b (10)",
			"uri":"textures/b%20%2810%29.png"
		},
		{
			"mimeType":"image/png",
			"name":"b (11)",
			"uri":"textures/b%20%2811%29.png"
		},
		{
			"mimeType":"image/png",
			"name":"b (12)",
			"uri":"textures/b%20%2812%29.png"
		},
		{
			"mimeType":"image/png",
			"name":"b (13)",
			"uri":"textures/b%20%2813%29.png"
		},
		{
			"mimeType":"image/png",
			"name":"b (14)",
			"uri":"textures/b%20%2814%29.png"
		},
		{
			"mimeType":"image/png",
			"name":"b (15)",
			"uri":"textures/b%20%2815%29.png"
		},
		{
			"mimeType":"image/png",
			"name":"b (16)",
			"uri":"textures/b%20%2816%29.png"
		},
		{
			"mimeType":"image/png",
			"name":"b (17)",
			"uri":"textures/b%20%2817%29.png"
		},
		{
			"mimeType":"image/png",
			"name":"b (18)",
			"uri":"textures/b%20%2818%29.png"
		},
		{
			"mimeType":"image/png",
			"name":"b (19)",
			"uri":"textures/b%20%2819%29.png"
		},
		{
			"mimeType":"image/png",
			"name":"b (20)",
			"uri":"textures/b%20%2820%29.png"
		},
		{
			"mimeType":"image/png",
			"name":"b (21)",
			"uri":"textures/b%20%2821%29.png"
		},
		{
			"mimeType":"image/png",
			"name":"b (22)",
			"uri":"textures/b%20%2822%29.png"
		},
		{
			"mimeType":"image/png",
			"name":"b (23)",
			"uri":"textures/b%20%2823%29.png"
		},
		{
			"mimeType":"image/png",
			"name":"b (24)",
			"uri":"textures/b%20%2824%29.png"
		},
		{
			"mimeType":"image/png",
			"name":"b (25)",
			"uri":"textures/b%20%2825%29.png"
		},
		{
			"mimeType":"image/png",
			"name":"b (26)",
			"uri":"textures/b%20%2826%29.png"
		},
		{
			"mimeType":"image/png",
			"name":"b (27)",
			"uri":"textures/b%20%2827%29.png"
		},
		{
			"mimeType":"image/png",
			"name":"b (28)",
			"uri":"textures/b%20%2828%29.png"
		},
		{
			"mimeType":"image/png",
			"name":"b (29)",
			"uri":"textures/b%20%2829%29.png"
		},
		{
			"mimeType":"image/png",
			"name":"b (30)",
			"uri":"textures/b%20%2830%29.png"
		},
		{
			"mimeType":"image/png",
			"name":"b (31)",
			"uri":"textures/b%20%2831%29.png"
		},
		{
			"mimeType":"image/png",
			"name":"b (32)",
			"uri":"textures/b%20%2832%29.png"
		},
		{
			"mimeType":"image/png",
			"name":"b (33)",
			"uri":"textures/b%20%2833%29.png"
		},
		{
			"mimeType":"image/png",
			"name":"b (34)",
			"uri":"textures/b%20%2834%29.png"
		},
		{
			"mimeType":"image/png",
			"name":"b (35)",
			"uri":"textures/b%20%2835%29.png"
		},
		{
			"mimeType":"image/png",
			"name":"b (36)",
			"uri":"textures/b%20%2836%29.png"
		}
	],
	"accessors":[
		{
			"bufferView":0,
			"componentType":5126,
			"count":81,
			"max":[
				0.6666667461395264,
				0,
				0.5000000596046448
			],
			"min":[
				-0.6666667461395264,
				0,
				-0.5000000596046448
			],
			"type":"VEC3"
		},
		{
			"bufferView":1,
			"componentType":5126,
			"count":81,
			"type":"VEC3"
		},
		{
			"bufferView":2,
			"componentType":5126,
			"count":81,
			"type":"VEC2"
		},
		{
			"bufferView":3,
			"componentType":5123,
			"count":384,
			"type":"SCALAR"
		},
		{
			"bufferView":4,
			"componentType":5126,
			"count":81,
			"max":[
				-2.990556001663208,
				-0.7655987739562988,
				5.3979172706604
			],
			"min":[
				-3.058932065963745,
				-2.127133846282959,
				4.339219570159912
			],
			"type":"VEC3"
		},
		{
			"bufferView":5,
			"componentType":5126,
			"count":81,
			"type":"VEC3"
		},
		{
			"bufferView":6,
			"componentType":5126,
			"count":81,
			"type":"VEC2"
		},
		{
			"bufferView":7,
			"componentType":5126,
			"count":81,
			"max":[
				-3.2556166648864746,
				0.1946883201599121,
				8.762228012084961
			],
			"min":[
				-3.5614724159240723,
				-1.275413155555725,
				7.595754146575928
			],
			"type":"VEC3"
		},
		{
			"bufferView":8,
			"componentType":5126,
			"count":81,
			"type":"VEC3"
		},
		{
			"bufferView":9,
			"componentType":5126,
			"count":81,
			"type":"VEC2"
		},
		{
			"bufferView":10,
			"componentType":5126,
			"count":81,
			"max":[
				0.14539504051208496,
				-1.3927561044692993,
				-1.0732561349868774
			],
			"min":[
				-1.3672749996185303,
				-1.9752649068832397,
				-2.2900428771972656
			],
			"type":"VEC3"
		},
		{
			"bufferView":11,
			"componentType":5126,
			"count":81,
			"type":"VEC3"
		},
		{
			"bufferView":12,
			"componentType":5126,
			"count":81,
			"type":"VEC2"
		},
		{
			"bufferView":13,
			"componentType":5126,
			"count":81,
			"max":[
				0.7562103271484375,
				2.8542208671569824,
				3.5583105087280273
			],
			"min":[
				-0.2452526092529297,
				2.7821450233459473,
				2.805845260620117
			],
			"type":"VEC3"
		},
		{
			"bufferView":14,
			"componentType":5126,
			"count":81,
			"type":"VEC3"
		},
		{
			"bufferView":15,
			"componentType":5126,
			"count":81,
			"type":"VEC2"
		},
		{
			"bufferView":16,
			"componentType":5126,
			"count":81,
			"max":[
				3.6089704036712646,
				-3.8229150772094727,
				4.496401786804199
			],
			"min":[
				2.90120530128479,
				-4.636078834533691,
				3.668543815612793
			],
			"type":"VEC3"
		},
		{
			"bufferView":17,
			"componentType":5126,
			"count":81,
			"type":"VEC3"
		},
		{
			"bufferView":18,
			"componentType":5126,
			"count":81,
			"type":"VEC2"
		},
		{
			"bufferView":19,
			"componentType":5126,
			"count":81,
			"max":[
				1.4249759912490845,
				0.6861335039138794,
				2.9988272190093994
			],
			"min":[
				0.831653892993927,
				0.2956780195236206,
				2.545804738998413
			],
			"type":"VEC3"
		},
		{
			"bufferView":20,
			"componentType":5126,
			"count":81,
			"type":"VEC3"
		},
		{
			"bufferView":21,
			"componentType":5126,
			"count":81,
			"type":"VEC2"
		},
		{
			"bufferView":22,
			"componentType":5126,
			"count":81,
			"max":[
				3.2728428840637207,
				-2.3454947471618652,
				9.144006729125977
			],
			"min":[
				2.4453749656677246,
				-3.0715012550354004,
				8.231515884399414
			],
			"type":"VEC3"
		},
		{
			"bufferView":23,
			"componentType":5126,
			"count":81,
			"type":"VEC3"
		},
		{
			"bufferView":24,
			"componentType":5126,
			"count":81,
			"type":"VEC2"
		},
		{
			"bufferView":25,
			"componentType":5126,
			"count":81,
			"max":[
				2.707735538482666,
				-2.593132495880127,
				5.626243591308594
			],
			"min":[
				1.9512513875961304,
				-3.690040111541748,
				4.602022171020508
			],
			"type":"VEC3"
		},
		{
			"bufferView":26,
			"componentType":5126,
			"count":81,
			"type":"VEC3"
		},
		{
			"bufferView":27,
			"componentType":5126,
			"count":81,
			"type":"VEC2"
		},
		{
			"bufferView":28,
			"componentType":5126,
			"count":81,
			"max":[
				-2.7855539321899414,
				-3.3100786209106445,
				6.608328819274902
			],
			"min":[
				-3.4895200729370117,
				-4.183335304260254,
				5.73530387878418
			],
			"type":"VEC3"
		},
		{
			"bufferView":29,
			"componentType":5126,
			"count":81,
			"type":"VEC3"
		},
		{
			"bufferView":30,
			"componentType":5126,
			"count":81,
			"type":"VEC2"
		},
		{
			"bufferView":31,
			"componentType":5126,
			"count":81,
			"max":[
				-1.7155632972717285,
				0.510604977607727,
				0.25180405378341675
			],
			"min":[
				-2.327603816986084,
				0.0124148428440094,
				-0.38251131772994995
			],
			"type":"VEC3"
		},
		{
			"bufferView":32,
			"componentType":5126,
			"count":81,
			"type":"VEC3"
		},
		{
			"bufferView":33,
			"componentType":5126,
			"count":81,
			"type":"VEC2"
		},
		{
			"bufferView":34,
			"componentType":5126,
			"count":81,
			"max":[
				3.2737338542938232,
				2.4986839294433594,
				3.9172542095184326
			],
			"min":[
				2.8185322284698486,
				2.158994436264038,
				3.501729726791382
			],
			"type":"VEC3"
		},
		{
			"bufferView":35,
			"componentType":5126,
			"count":81,
			"type":"VEC3"
		},
		{
			"bufferView":36,
			"componentType":5126,
			"count":81,
			"type":"VEC2"
		},
		{
			"bufferView":37,
			"componentType":5126,
			"count":81,
			"max":[
				-0.646892786026001,
				-3.287078857421875,
				9.083268165588379
			],
			"min":[
				-1.5336740016937256,
				-4.090265274047852,
				8.173161506652832
			],
			"type":"VEC3"
		},
		{
			"bufferView":38,
			"componentType":5126,
			"count":81,
			"type":"VEC3"
		},
		{
			"bufferView":39,
			"componentType":5126,
			"count":81,
			"type":"VEC2"
		},
		{
			"bufferView":40,
			"componentType":5126,
			"count":81,
			"max":[
				0.10122120380401611,
				-3.796105146408081,
				5.815308094024658
			],
			"min":[
				-0.9497243762016296,
				-4.081101894378662,
				4.984488010406494
			],
			"type":"VEC3"
		},
		{
			"bufferView":41,
			"componentType":5126,
			"count":81,
			"type":"VEC3"
		},
		{
			"bufferView":42,
			"componentType":5126,
			"count":81,
			"type":"VEC2"
		},
		{
			"bufferView":43,
			"componentType":5126,
			"count":81,
			"max":[
				-0.9634473919868469,
				-4.476761817932129,
				7.5743088722229
			],
			"min":[
				-1.7874433994293213,
				-5.00435733795166,
				6.806572437286377
			],
			"type":"VEC3"
		},
		{
			"bufferView":44,
			"componentType":5126,
			"count":81,
			"type":"VEC3"
		},
		{
			"bufferView":45,
			"componentType":5126,
			"count":81,
			"type":"VEC2"
		},
		{
			"bufferView":46,
			"componentType":5126,
			"count":81,
			"max":[
				0.8841456174850464,
				-2.9768011569976807,
				7.341862678527832
			],
			"min":[
				-0.5582789182662964,
				-3.2422215938568115,
				6.256935119628906
			],
			"type":"VEC3"
		},
		{
			"bufferView":47,
			"componentType":5126,
			"count":81,
			"type":"VEC3"
		},
		{
			"bufferView":48,
			"componentType":5126,
			"count":81,
			"type":"VEC2"
		},
		{
			"bufferView":49,
			"componentType":5126,
			"count":81,
			"max":[
				2.378063678741455,
				-1.621225118637085,
				10.433548927307129
			],
			"min":[
				1.7680469751358032,
				-2.4609110355377197,
				9.684226036071777
			],
			"type":"VEC3"
		},
		{
			"bufferView":50,
			"componentType":5126,
			"count":81,
			"type":"VEC3"
		},
		{
			"bufferView":51,
			"componentType":5126,
			"count":81,
			"type":"VEC2"
		},
		{
			"bufferView":52,
			"componentType":5126,
			"count":81,
			"max":[
				0.2467474341392517,
				-5.715494632720947,
				4.621643543243408
			],
			"min":[
				-0.5670924186706543,
				-5.8169684410095215,
				3.9985439777374268
			],
			"type":"VEC3"
		},
		{
			"bufferView":53,
			"componentType":5126,
			"count":81,
			"type":"VEC3"
		},
		{
			"bufferView":54,
			"componentType":5126,
			"count":81,
			"type":"VEC2"
		},
		{
			"bufferView":55,
			"componentType":5126,
			"count":81,
			"max":[
				1.6668424606323242,
				1.7551144361495972,
				4.703793525695801
			],
			"min":[
				0.6768788695335388,
				1.369343876838684,
				3.884946823120117
			],
			"type":"VEC3"
		},
		{
			"bufferView":56,
			"componentType":5126,
			"count":81,
			"type":"VEC3"
		},
		{
			"bufferView":57,
			"componentType":5126,
			"count":81,
			"type":"VEC2"
		},
		{
			"bufferView":58,
			"componentType":5126,
			"count":81,
			"max":[
				-2.3553409576416016,
				-1.841296911239624,
				1.561815857887268
			],
			"min":[
				-2.6573028564453125,
				-2.6149141788482666,
				0.9419311285018921
			],
			"type":"VEC3"
		},
		{
			"bufferView":59,
			"componentType":5126,
			"count":81,
			"type":"VEC3"
		},
		{
			"bufferView":60,
			"componentType":5126,
			"count":81,
			"type":"VEC2"
		},
		{
			"bufferView":61,
			"componentType":5126,
			"count":81,
			"max":[
				2.246812343597412,
				0.43617168068885803,
				9.002148628234863
			],
			"min":[
				1.515312671661377,
				0.11490903794765472,
				8.365199089050293
			],
			"type":"VEC3"
		},
		{
			"bufferView":62,
			"componentType":5126,
			"count":81,
			"type":"VEC3"
		},
		{
			"bufferView":63,
			"componentType":5126,
			"count":81,
			"type":"VEC2"
		},
		{
			"bufferView":64,
			"componentType":5126,
			"count":81,
			"max":[
				-0.8080765604972839,
				0.30402955412864685,
				1.684882640838623
			],
			"min":[
				-1.6165584325790405,
				-0.21120846271514893,
				0.9340947270393372
			],
			"type":"VEC3"
		},
		{
			"bufferView":65,
			"componentType":5126,
			"count":81,
			"type":"VEC3"
		},
		{
			"bufferView":66,
			"componentType":5126,
			"count":81,
			"type":"VEC2"
		},
		{
			"bufferView":67,
			"componentType":5126,
			"count":81,
			"max":[
				4.491450309753418,
				-1.8147921562194824,
				5.542293548583984
			],
			"min":[
				4.280228614807129,
				-2.48972749710083,
				4.935884475708008
			],
			"type":"VEC3"
		},
		{
			"bufferView":68,
			"componentType":5126,
			"count":81,
			"type":"VEC3"
		},
		{
			"bufferView":69,
			"componentType":5126,
			"count":81,
			"type":"VEC2"
		},
		{
			"bufferView":70,
			"componentType":5126,
			"count":81,
			"max":[
				-1.1677130460739136,
				2.17043137550354,
				7.02845573425293
			],
			"min":[
				-1.777868390083313,
				1.8827645778656006,
				6.5189714431762695
			],
			"type":"VEC3"
		},
		{
			"bufferView":71,
			"componentType":5126,
			"count":81,
			"type":"VEC3"
		},
		{
			"bufferView":72,
			"componentType":5126,
			"count":81,
			"type":"VEC2"
		},
		{
			"bufferView":73,
			"componentType":5126,
			"count":81,
			"max":[
				3.3632586002349854,
				1.2334825992584229,
				5.92689847946167
			],
			"min":[
				2.577056646347046,
				0.6416699886322021,
				5.21721887588501
			],
			"type":"VEC3"
		},
		{
			"bufferView":74,
			"componentType":5126,
			"count":81,
			"type":"VEC3"
		},
		{
			"bufferView":75,
			"componentType":5126,
			"count":81,
			"type":"VEC2"
		},
		{
			"bufferView":76,
			"componentType":5126,
			"count":81,
			"max":[
				3.6980948448181152,
				-2.211480140686035,
				7.131348609924316
			],
			"min":[
				3.5353665351867676,
				-2.6779165267944336,
				6.793039321899414
			],
			"type":"VEC3"
		},
		{
			"bufferView":77,
			"componentType":5126,
			"count":81,
			"type":"VEC3"
		},
		{
			"bufferView":78,
			"componentType":5126,
			"count":81,
			"type":"VEC2"
		},
		{
			"bufferView":79,
			"componentType":5126,
			"count":81,
			"max":[
				2.994689464569092,
				0.2848595380783081,
				7.505949974060059
			],
			"min":[
				2.4819016456604004,
				-1.0559015274047852,
				6.396661758422852
			],
			"type":"VEC3"
		},
		{
			"bufferView":80,
			"componentType":5126,
			"count":81,
			"type":"VEC3"
		},
		{
			"bufferView":81,
			"componentType":5126,
			"count":81,
			"type":"VEC2"
		},
		{
			"bufferView":82,
			"componentType":5126,
			"count":81,
			"max":[
				-2.2881617546081543,
				-0.22286933660507202,
				9.095198631286621
			],
			"min":[
				-2.52787446975708,
				-1.2405037879943848,
				8.284911155700684
			],
			"type":"VEC3"
		},
		{
			"bufferView":83,
			"componentType":5126,
			"count":81,
			"type":"VEC3"
		},
		{
			"bufferView":84,
			"componentType":5126,
			"count":81,
			"type":"VEC2"
		},
		{
			"bufferView":85,
			"componentType":5126,
			"count":81,
			"max":[
				-0.7552498579025269,
				-2.996129035949707,
				1.6256333589553833
			],
			"min":[
				-1.5783549547195435,
				-3.440972328186035,
				0.869463324546814
			],
			"type":"VEC3"
		},
		{
			"bufferView":86,
			"componentType":5126,
			"count":81,
			"type":"VEC3"
		},
		{
			"bufferView":87,
			"componentType":5126,
			"count":81,
			"type":"VEC2"
		},
		{
			"bufferView":88,
			"componentType":5126,
			"count":81,
			"max":[
				-4.359247207641602,
				-1.5512949228286743,
				4.051675796508789
			],
			"min":[
				-4.453517913818359,
				-2.515162944793701,
				3.322953701019287
			],
			"type":"VEC3"
		},
		{
			"bufferView":89,
			"componentType":5126,
			"count":81,
			"type":"VEC3"
		},
		{
			"bufferView":90,
			"componentType":5126,
			"count":81,
			"type":"VEC2"
		},
		{
			"bufferView":91,
			"componentType":5126,
			"count":81,
			"max":[
				1.0657713413238525,
				-2.6290442943573,
				-0.6883466839790344
			],
			"min":[
				0.7942673563957214,
				-3.2043163776397705,
				-1.2072701454162598
			],
			"type":"VEC3"
		},
		{
			"bufferView":92,
			"componentType":5126,
			"count":81,
			"type":"VEC3"
		},
		{
			"bufferView":93,
			"componentType":5126,
			"count":81,
			"type":"VEC2"
		},
		{
			"bufferView":94,
			"componentType":5126,
			"count":81,
			"max":[
				1.9072753190994263,
				-4.514632225036621,
				6.619671821594238
			],
			"min":[
				0.810284435749054,
				-4.866499900817871,
				5.7350873947143555
			],
			"type":"VEC3"
		},
		{
			"bufferView":95,
			"componentType":5126,
			"count":81,
			"type":"VEC3"
		},
		{
			"bufferView":96,
			"componentType":5126,
			"count":81,
			"type":"VEC2"
		},
		{
			"bufferView":97,
			"componentType":5126,
			"count":81,
			"max":[
				-2.210364818572998,
				-1.4906426668167114,
				7.363160133361816
			],
			"min":[
				-2.6337151527404785,
				-2.8415451049804688,
				6.332402229309082
			],
			"type":"VEC3"
		},
		{
			"bufferView":98,
			"componentType":5126,
			"count":81,
			"type":"VEC3"
		},
		{
			"bufferView":99,
			"componentType":5126,
			"count":81,
			"type":"VEC2"
		},
		{
			"bufferView":100,
			"componentType":5126,
			"count":81,
			"max":[
				2.2968528270721436,
				-0.3337826728820801,
				-0.21197015047073364
			],
			"min":[
				1.561896562576294,
				-1.2965388298034668,
				-1.1657071113586426
			],
			"type":"VEC3"
		},
		{
			"bufferView":101,
			"componentType":5126,
			"count":81,
			"type":"VEC3"
		},
		{
			"bufferView":102,
			"componentType":5126,
			"count":81,
			"type":"VEC2"
		},
		{
			"bufferView":103,
			"componentType":5126,
			"count":81,
			"max":[
				2.2306456565856934,
				0.4981253743171692,
				2.050062656402588
			],
			"min":[
				1.286146640777588,
				-0.4722979664802551,
				1.033858060836792
			],
			"type":"VEC3"
		},
		{
			"bufferView":104,
			"componentType":5126,
			"count":81,
			"type":"VEC3"
		},
		{
			"bufferView":105,
			"componentType":5126,
			"count":81,
			"type":"VEC2"
		},
		{
			"bufferView":106,
			"componentType":5126,
			"count":81,
			"max":[
				-2.480891704559326,
				1.690738558769226,
				5.044480323791504
			],
			"min":[
				-2.868124485015869,
				1.3630601167678833,
				4.676906585693359
			],
			"type":"VEC3"
		},
		{
			"bufferView":107,
			"componentType":5126,
			"count":81,
			"type":"VEC3"
		},
		{
			"bufferView":108,
			"componentType":5126,
			"count":81,
			"type":"VEC2"
		},
		{
			"bufferView":109,
			"componentType":5126,
			"count":59749,
			"max":[
				8.256711959838867,
				27.657073974609375,
				7.620404243469238
			],
			"min":[
				-8.333252906799316,
				-0.010211645625531673,
				-9.41808795928955
			],
			"type":"VEC3"
		},
		{
			"bufferView":110,
			"componentType":5126,
			"count":59749,
			"type":"VEC3"
		},
		{
			"bufferView":111,
			"componentType":5123,
			"count":332784,
			"type":"SCALAR"
		}
	],
	"bufferViews":[
		{
			"buffer":0,
			"byteLength":972,
			"byteOffset":0,
			"target":34962
		},
		{
			"buffer":0,
			"byteLength":972,
			"byteOffset":972,
			"target":34962
		},
		{
			"buffer":0,
			"byteLength":648,
			"byteOffset":1944,
			"target":34962
		},
		{
			"buffer":0,
			"byteLength":768,
			"byteOffset":2592,
			"target":34963
		},
		{
			"buffer":0,
			"byteLength":972,
			"byteOffset":3360,
			"target":34962
		},
		{
			"buffer":0,
			"byteLength":972,
			"byteOffset":4332,
			"target":34962
		},
		{
			"buffer":0,
			"byteLength":648,
			"byteOffset":5304,
			"target":34962
		},
		{
			"buffer":0,
			"byteLength":972,
			"byteOffset":5952,
			"target":34962
		},
		{
			"buffer":0,
			"byteLength":972,
			"byteOffset":6924,
			"target":34962
		},
		{
			"buffer":0,
			"byteLength":648,
			"byteOffset":7896,
			"target":34962
		},
		{
			"buffer":0,
			"byteLength":972,
			"byteOffset":8544,
			"target":34962
		},
		{
			"buffer":0,
			"byteLength":972,
			"byteOffset":9516,
			"target":34962
		},
		{
			"buffer":0,
			"byteLength":648,
			"byteOffset":10488,
			"target":34962
		},
		{
			"buffer":0,
			"byteLength":972,
			"byteOffset":11136,
			"target":34962
		},
		{
			"buffer":0,
			"byteLength":972,
			"byteOffset":12108,
			"target":34962
		},
		{
			"buffer":0,
			"byteLength":648,
			"byteOffset":13080,
			"target":34962
		},
		{
			"buffer":0,
			"byteLength":972,
			"byteOffset":13728,
			"target":34962
		},
		{
			"buffer":0,
			"byteLength":972,
			"byteOffset":14700,
			"target":34962
		},
		{
			"buffer":0,
			"byteLength":648,
			"byteOffset":15672,
			"target":34962
		},
		{
			"buffer":0,
			"byteLength":972,
			"byteOffset":16320,
			"target":34962
		},
		{
			"buffer":0,
			"byteLength":972,
			"byteOffset":17292,
			"target":34962
		},
		{
			"buffer":0,
			"byteLength":648,
			"byteOffset":18264,
			"target":34962
		},
		{
			"buffer":0,
			"byteLength":972,
			"byteOffset":18912,
			"target":34962
		},
		{
			"buffer":0,
			"byteLength":972,
			"byteOffset":19884,
			"target":34962
		},
		{
			"buffer":0,
			"byteLength":648,
			"byteOffset":20856,
			"target":34962
		},
		{
			"buffer":0,
			"byteLength":972,
			"byteOffset":21504,
			"target":34962
		},
		{
			"buffer":0,
			"byteLength":972,
			"byteOffset":22476,
			"target":34962
		},
		{
			"buffer":0,
			"byteLength":648,
			"byteOffset":23448,
			"target":34962
		},
		{
			"buffer":0,
			"byteLength":972,
			"byteOffset":24096,
			"target":34962
		},
		{
			"buffer":0,
			"byteLength":972,
			"byteOffset":25068,
			"target":34962
		},
		{
			"buffer":0,
			"byteLength":648,
			"byteOffset":26040,
			"target":34962
		},
		{
			"buffer":0,
			"byteLength":972,
			"byteOffset":26688,
			"target":34962
		},
		{
			"buffer":0,
			"byteLength":972,
			"byteOffset":27660,
			"target":34962
		},
		{
			"buffer":0,
			"byteLength":648,
			"byteOffset":28632,
			"target":34962
		},
		{
			"buffer":0,
			"byteLength":972,
			"byteOffset":29280,
			"target":34962
		},
		{
			"buffer":0,
			"byteLength":972,
			"byteOffset":30252,
			"target":34962
		},
		{
			"buffer":0,
			"byteLength":648,
			"byteOffset":31224,
			"target":34962
		},
		{
			"buffer":0,
			"byteLength":972,
			"byteOffset":31872,
			"target":34962
		},
		{
			"buffer":0,
			"byteLength":972,
			"byteOffset":32844,
			"target":34962
		},
		{
			"buffer":0,
			"byteLength":648,
			"byteOffset":33816,
			"target":34962
		},
		{
			"buffer":0,
			"byteLength":972,
			"byteOffset":34464,
			"target":34962
		},
		{
			"buffer":0,
			"byteLength":972,
			"byteOffset":35436,
			"target":34962
		},
		{
			"buffer":0,
			"byteLength":648,
			"byteOffset":36408,
			"target":34962
		},
		{
			"buffer":0,
			"byteLength":972,
			"byteOffset":37056,
			"target":34962
		},
		{
			"buffer":0,
			"byteLength":972,
			"byteOffset":38028,
			"target":34962
		},
		{
			"buffer":0,
			"byteLength":648,
			"byteOffset":39000,
			"target":34962
		},
		{
			"buffer":0,
			"byteLength":972,
			"byteOffset":39648,
			"target":34962
		},
		{
			"buffer":0,
			"byteLength":972,
			"byteOffset":40620,
			"target":34962
		},
		{
			"buffer":0,
			"byteLength":648,
			"byteOffset":41592,
			"target":34962
		},
		{
			"buffer":0,
			"byteLength":972,
			"byteOffset":42240,
			"target":34962
		},
		{
			"buffer":0,
			"byteLength":972,
			"byteOffset":43212,
			"target":34962
		},
		{
			"buffer":0,
			"byteLength":648,
			"byteOffset":44184,
			"target":34962
		},
		{
			"buffer":0,
			"byteLength":972,
			"byteOffset":44832,
			"target":34962
		},
		{
			"buffer":0,
			"byteLength":972,
			"byteOffset":45804,
			"target":34962
		},
		{
			"buffer":0,
			"byteLength":648,
			"byteOffset":46776,
			"target":34962
		},
		{
			"buffer":0,
			"byteLength":972,
			"byteOffset":47424,
			"target":34962
		},
		{
			"buffer":0,
			"byteLength":972,
			"byteOffset":48396,
			"target":34962
		},
		{
			"buffer":0,
			"byteLength":648,
			"byteOffset":49368,
			"target":34962
		},
		{
			"buffer":0,
			"byteLength":972,
			"byteOffset":50016,
			"target":34962
		},
		{
			"buffer":0,
			"byteLength":972,
			"byteOffset":50988,
			"target":34962
		},
		{
			"buffer":0,
			"byteLength":648,
			"byteOffset":51960,
			"target":34962
		},
		{
			"buffer":0,
			"byteLength":972,
			"byteOffset":52608,
			"target":34962
		},
		{
			"buffer":0,
			"byteLength":972,
			"byteOffset":53580,
			"target":34962
		},
		{
			"buffer":0,
			"byteLength":648,
			"byteOffset":54552,
			"target":34962
		},
		{
			"buffer":0,
			"byteLength":972,
			"byteOffset":55200,
			"target":34962
		},
		{
			"buffer":0,
			"byteLength":972,
			"byteOffset":56172,
			"target":34962
		},
		{
			"buffer":0,
			"byteLength":648,
			"byteOffset":57144,
			"target":34962
		},
		{
			"buffer":0,
			"byteLength":972,
			"byteOffset":57792,
			"target":34962
		},
		{
			"buffer":0,
			"byteLength":972,
			"byteOffset":58764,
			"target":34962
		},
		{
			"buffer":0,
			"byteLength":648,
			"byteOffset":59736,
			"target":34962
		},
		{
			"buffer":0,
			"byteLength":972,
			"byteOffset":60384,
			"target":34962
		},
		{
			"buffer":0,
			"byteLength":972,
			"byteOffset":61356,
			"target":34962
		},
		{
			"buffer":0,
			"byteLength":648,
			"byteOffset":62328,
			"target":34962
		},
		{
			"buffer":0,
			"byteLength":972,
			"byteOffset":62976,
			"target":34962
		},
		{
			"buffer":0,
			"byteLength":972,
			"byteOffset":63948,
			"target":34962
		},
		{
			"buffer":0,
			"byteLength":648,
			"byteOffset":64920,
			"target":34962
		},
		{
			"buffer":0,
			"byteLength":972,
			"byteOffset":65568,
			"target":34962
		},
		{
			"buffer":0,
			"byteLength":972,
			"byteOffset":66540,
			"target":34962
		},
		{
			"buffer":0,
			"byteLength":648,
			"byteOffset":67512,
			"target":34962
		},
		{
			"buffer":0,
			"byteLength":972,
			"byteOffset":68160,
			"target":34962
		},
		{
			"buffer":0,
			"byteLength":972,
			"byteOffset":69132,
			"target":34962
		},
		{
			"buffer":0,
			"byteLength":648,
			"byteOffset":70104,
			"target":34962
		},
		{
			"buffer":0,
			"byteLength":972,
			"byteOffset":70752,
			"target":34962
		},
		{
			"buffer":0,
			"byteLength":972,
			"byteOffset":71724,
			"target":34962
		},
		{
			"buffer":0,
			"byteLength":648,
			"byteOffset":72696,
			"target":34962
		},
		{
			"buffer":0,
			"byteLength":972,
			"byteOffset":73344,
			"target":34962
		},
		{
			"buffer":0,
			"byteLength":972,
			"byteOffset":74316,
			"target":34962
		},
		{
			"buffer":0,
			"byteLength":648,
			"byteOffset":75288,
			"target":34962
		},
		{
			"buffer":0,
			"byteLength":972,
			"byteOffset":75936,
			"target":34962
		},
		{
			"buffer":0,
			"byteLength":972,
			"byteOffset":76908,
			"target":34962
		},
		{
			"buffer":0,
			"byteLength":648,
			"byteOffset":77880,
			"target":34962
		},
		{
			"buffer":0,
			"byteLength":972,
			"byteOffset":78528,
			"target":34962
		},
		{
			"buffer":0,
			"byteLength":972,
			"byteOffset":79500,
			"target":34962
		},
		{
			"buffer":0,
			"byteLength":648,
			"byteOffset":80472,
			"target":34962
		},
		{
			"buffer":0,
			"byteLength":972,
			"byteOffset":81120,
			"target":34962
		},
		{
			"buffer":0,
			"byteLength":972,
			"byteOffset":82092,
			"target":34962
		},
		{
			"buffer":0,
			"byteLength":648,
			"byteOffset":83064,
			"target":34962
		},
		{
			"buffer":0,
			"byteLength":972,
			"byteOffset":83712,
			"target":34962
		},
		{
			"buffer":0,
			"byteLength":972,
			"byteOffset":84684,
			"target":34962
		},
		{
			"buffer":0,
			"byteLength":648,
			"byteOffset":85656,
			"target":34962
		},
		{
			"buffer":0,
			"byteLength":972,
			"byteOffset":86304,
			"target":34962
		},
		{
			"buffer":0,
			"byteLength":972,
			"byteOffset":87276,
			"target":34962
		},
		{
			"buffer":0,
			"byteLength":648,
			"byteOffset":88248,
			"target":34962
		},
		{
			"buffer":0,
			"byteLength":972,
			"byteOffset":88896,
			"target":34962
		},
		{
			"buffer":0,
			"byteLength":972,
			"byteOffset":89868,
			"target":34962
		},
		{
			"buffer":0,
			"byteLength":648,
			"byteOffset":90840,
			"target":34962
		},
		{
			"buffer":0,
			"byteLength":972,
			"byteOffset":91488,
			"target":34962
		},
		{
			"buffer":0,
			"byteLength":972,
			"byteOffset":92460,
			"target":34962
		},
		{
			"buffer":0,
			"byteLength":648,
			"byteOffset":93432,
			"target":34962
		},
		{
			"buffer":0,
			"byteLength":716988,
			"byteOffset":94080,
			"target":34962
		},
		{
			"buffer":0,
			"byteLength":716988,
			"byteOffset":811068,
			"target":34962
		},
		{
			"buffer":0,
			"byteLength":665568,
			"byteOffset":1528056,
			"target":34963
		}
	],
	"samplers":[
		{
			"magFilter":9729,
			"minFilter":9987,
			"wrapS":33071,
			"wrapT":33071
		}
	],
	"buffers":[
		{
			"byteLength":2193624,
			"uri":"model.bin"
		}
	]
}
